<?xml version="1.0"?>
<svg width="16" height="16" xmlns="http://www.w3.org/2000/svg" xmlns:svg="http://www.w3.org/2000/svg" clip-rule="evenodd">
 <g>
  <title>Layer 1</title>
  <path fill="#333333" id="svg_1" d="m8,0c-4.42,0 -8,3.582 -8,8c0,3.535 2.292,6.533 5.47,7.59c0.4,0.075 0.547,-0.172 0.547,-0.385c0,-0.19 -0.007,-0.693 -0.01,-1.36c-2.226,0.483 -2.695,-1.073 -2.695,-1.073c-0.364,-0.924 -0.89,-1.17 -0.89,-1.17c-0.725,-0.496 0.056,-0.486 0.056,-0.486c0.803,0.056 1.225,0.824 1.225,0.824c0.714,1.223 1.873,0.87 2.33,0.665c0.072,-0.517 0.278,-0.87 0.507,-1.07c-1.777,-0.2 -3.644,-0.888 -3.644,-3.953c0,-0.873 0.31,-1.587 0.823,-2.147c-0.083,-0.202 -0.358,-1.015 0.077,-2.117c0,0 0.672,-0.215 2.2,0.82c0.638,-0.178 1.323,-0.266 2.003,-0.27c0.68,0.004 1.364,0.092 2.003,0.27c1.527,-1.035 2.198,-0.82 2.198,-0.82c0.437,1.102 0.163,1.915 0.08,2.117c0.513,0.56 0.823,1.274 0.823,2.147c0,3.073 -1.87,3.75 -3.653,3.947c0.287,0.246 0.543,0.735 0.543,1.48c0,1.07 -0.01,1.933 -0.01,2.195c0,0.215 0.144,0.463 0.55,0.385c3.177,-1.059 5.467,-4.055 5.467,-7.589c0,-4.418 -3.582,-8 -8,-8"/>
 </g>
</svg>