<?xml version="1.0"?>
<svg width="16" height="16" xmlns="http://www.w3.org/2000/svg" xmlns:svg="http://www.w3.org/2000/svg" clip-rule="evenodd">
 <g>
  <title>Layer 1</title>
  <path fill="#333333" id="svg_1" fill-rule="nonzero" d="m13.632,13.635l-2.37,0l0,-3.713c0,-0.886 -0.018,-2.025 -1.234,-2.025c-1.235,0 -1.424,0.964 -1.424,1.96l0,3.778l-2.37,0l0,-7.635l2.276,0l0,1.04l0.03,0c0.318,-0.6 1.092,-1.233 2.247,-1.233c2.4,0 2.845,1.58 2.845,3.637l0,4.188l0,0.003zm-10.074,-8.68c-0.762,0 -1.376,-0.617 -1.376,-1.377c0,-0.758 0.614,-1.375 1.376,-1.375c0.76,0 1.376,0.617 1.376,1.375c0,0.76 -0.617,1.377 -1.376,1.377zm1.188,8.68l-2.376,0l0,-7.635l2.376,0l0,7.635zm10.07,-13.635l-13.636,0c-0.652,0 -1.18,0.516 -1.18,1.153l0,13.694c0,0.637 0.528,1.153 1.18,1.153l13.635,0c0.652,0 1.185,-0.516 1.185,-1.153l0,-13.694c0,-0.637 -0.533,-1.153 -1.185,-1.153l0.001,0z"/>
 </g>
</svg>