<?xml version="1.0"?>
<svg width="16" height="16" xmlns="http://www.w3.org/2000/svg" xmlns:svg="http://www.w3.org/2000/svg" clip-rule="evenodd">
 <g>
  <title>Layer 1</title>
  <path fill="#333333" id="svg_1" fill-rule="nonzero" d="m16,3.038c-0.59,0.26 -1.22,0.437 -1.885,0.517c0.677,-0.407 1.198,-1.05 1.443,-1.816c-0.634,0.375 -1.337,0.648 -2.085,0.795c-0.598,-0.638 -1.45,-1.036 -2.396,-1.036c-1.812,0 -3.282,1.468 -3.282,3.28c0,0.258 0.03,0.51 0.085,0.75c-2.728,-0.138 -5.147,-1.444 -6.766,-3.428c-0.284,0.483 -0.444,1.047 -0.444,1.65c0,1.14 0.58,2.143 1.46,2.732c-0.538,-0.017 -1.045,-0.165 -1.487,-0.41l0,0.04c0,1.59 1.13,2.918 2.633,3.22c-0.276,0.074 -0.566,0.114 -0.865,0.114c-0.21,0 -0.416,-0.02 -0.617,-0.058c0.418,1.304 1.63,2.253 3.067,2.28c-1.124,0.88 -2.54,1.404 -4.077,1.404c-0.265,0 -0.526,-0.015 -0.783,-0.045c1.453,0.93 3.178,1.474 5.032,1.474c6.038,0 9.34,-5 9.34,-9.338c0,-0.143 -0.004,-0.284 -0.01,-0.425c0.64,-0.463 1.198,-1.04 1.638,-1.7l-0.001,0z"/>
 </g>
</svg>